<?xml version="1.0" encoding="utf-8"?>
<!-- Generator: Adobe Illustrator 17.1.0, SVG Export Plug-In . SVG Version: 6.00 Build 0)  -->
<!DOCTYPE svg PUBLIC "-//W3C//DTD SVG 1.1//EN" "http://www.w3.org/Graphics/SVG/1.1/DTD/svg11.dtd">
<svg version="1.1" id="Layer_1" xmlns="http://www.w3.org/2000/svg" xmlns:xlink="http://www.w3.org/1999/xlink" x="0px" y="0px"
	 viewBox="0 0 24 24" enable-background="new 0 0 24 24" xml:space="preserve">
<g>
	<path fill="#D2D8D8" d="M18,7c0.5,0,1,0.5,1,1v7c0,0.5-0.5,1-1,1h-8H9.2L9,16.2V16H7H6c-0.5,0-1-0.5-1-1V8c0-0.5,0.5-1,1-1H18
		 M18,5H6C4.3,5,3,6.3,3,8v7c0,1.6,1.3,3,3,3h1v3l3-3h8c1.6,0,3-1.4,3-3V8C21,6.3,19.6,5,18,5z"/>
</g>
</svg>
